<svg width="395" height="363" viewBox="0 0 395 363" fill="none" xmlns="http://www.w3.org/2000/svg">
<ellipse cx="206.412" cy="48.5213" rx="44.658" ry="42.4527" transform="rotate(95.5 206.412 48.5213)" fill="url(#paint0_linear_133_529)"/>
<path d="M386.544 219.563C386.544 242.354 367.092 260.923 342.979 260.923C318.866 260.923 299.414 242.354 299.414 219.563C299.414 196.772 318.866 178.203 342.979 178.203C367.092 178.203 386.544 196.772 386.544 219.563Z" stroke="#FCF8F6" stroke-width="2.18554"/>
<ellipse cx="246.138" cy="298.261" rx="59.078" ry="56.1605" fill="black"/>
<ellipse cx="320.312" cy="115.179" rx="73.8886" ry="70.2398" fill="url(#paint1_linear_133_529)"/>
<path d="M123.24 49.1105C128.243 64.0637 119.557 80.5171 103.736 85.8106C87.9153 91.1041 71.0764 83.1913 66.0732 68.2381C61.0699 53.2849 69.756 36.8316 85.5767 31.538C101.397 26.2445 118.236 34.1573 123.24 49.1105Z" stroke="#FCF8F6" stroke-width="1.51207"/>
<path d="M365.323 342.674C365.323 353.124 356.405 361.637 345.349 361.637C334.294 361.637 325.376 353.124 325.376 342.674C325.376 332.225 334.294 323.712 345.349 323.712C356.405 323.712 365.323 332.225 365.323 342.674Z" stroke="#FCF8F6" stroke-width="1.00202"/>
<rect x="1.00598" y="229.084" width="228.582" height="110.988" rx="55.494" stroke="#FCF8F6" stroke-width="2.01195"/>
<rect x="35.771" y="95.288" width="288.155" height="160" rx="80" fill="url(#paint2_linear_133_529)"/>
<defs>
<linearGradient id="paint0_linear_133_529" x1="206.412" y1="6.06864" x2="206.412" y2="90.974" gradientUnits="userSpaceOnUse">
<stop offset="0.5625"/>
<stop offset="1" stop-opacity="0"/>
</linearGradient>
<linearGradient id="paint1_linear_133_529" x1="320.313" y1="44.9388" x2="320.313" y2="185.418" gradientUnits="userSpaceOnUse">
<stop offset="0.307292" stop-color="#2ACEB1"/>
<stop offset="1" stop-color="#2ACEB1" stop-opacity="0"/>
</linearGradient>
<linearGradient id="paint2_linear_133_529" x1="179.849" y1="95.288" x2="179.849" y2="255.288" gradientUnits="userSpaceOnUse">
<stop stop-color="#F102AE" stop-opacity="0"/>
<stop offset="0.755208" stop-color="#F102AE"/>
</linearGradient>
</defs>
</svg>
