<svg width="58" height="53" viewBox="0 0 58 53" fill="none" xmlns="http://www.w3.org/2000/svg">
<rect x="0.102051" y="0.474609" width="56.9723" height="52.3777" rx="9.18908" fill="#460FE1"/>
<path d="M29.737 34.704V37.0013H27.4398V34.704H18.2507C17.6163 34.704 17.1021 34.1897 17.1021 33.5554V17.4745H40.0747V33.5554C40.0747 34.1897 39.5605 34.704 38.9261 34.704H29.737ZM19.3993 32.4067H37.7775V19.7717H19.3993V32.4067ZM29.737 22.069H35.4802V24.3663H29.737V22.069ZM29.737 26.6635H35.4802V28.9608H29.737V26.6635ZM25.1425 22.069V25.5149H28.5884C28.5884 27.4181 27.0457 28.9608 25.1425 28.9608C23.2394 28.9608 21.6966 27.4181 21.6966 25.5149C21.6966 23.6117 23.2394 22.069 25.1425 22.069ZM17.1021 14.0286H40.0747V16.3258H17.1021V14.0286Z" fill="#FCF8F5"/>
</svg>
