<svg width="169" height="53" viewBox="0 0 169 53" fill="none" xmlns="http://www.w3.org/2000/svg">
<path d="M72.79 16.094C70.8659 16.094 69.1519 15.4472 67.8584 14.2507L69.2328 12.6176C70.2838 13.5231 71.4803 14.0729 72.887 14.0729C74.0836 14.0729 74.698 13.5231 74.698 12.8278C74.698 12.0355 74.0512 11.793 72.3535 11.4049C70.0089 10.8713 68.3435 10.2084 68.3435 8.05789C68.3435 6.0044 70.0251 4.59767 72.4505 4.59767C74.2614 4.59767 75.6682 5.1636 76.8 6.13375L75.555 7.84769C74.5686 7.0554 73.453 6.61883 72.3858 6.61883C71.3671 6.61883 70.7527 7.15242 70.7527 7.81535C70.7527 8.62382 71.4156 8.88253 73.1296 9.27059C75.5226 9.80417 77.1072 10.5156 77.1072 12.5691C77.1072 14.6873 75.5065 16.094 72.79 16.094Z" fill="#FDF8F5"/>
<path d="M82.6987 14.0082C83.3617 14.0082 84.1701 13.701 84.6229 13.2644L86.1266 14.8005C85.3828 15.5766 83.9438 16.094 82.7149 16.094C80.2248 16.094 78.2845 14.2669 78.2845 11.696C78.2845 9.17357 80.144 7.34645 82.5856 7.34645C85.205 7.34645 86.7411 9.33526 86.7411 12.4883H80.7099C80.9848 13.3937 81.7124 14.0082 82.6987 14.0082ZM82.6826 9.43228C81.7933 9.43228 81.0495 9.9497 80.7423 10.7905H84.4774C84.251 9.96587 83.6366 9.43228 82.6826 9.43228Z" fill="#FDF8F5"/>
<path d="M98.2822 7.34645C100.029 7.34645 101.371 8.68849 101.371 10.5803V15.9162H99.1069V10.9845C99.1069 10.0144 98.4924 9.33526 97.6193 9.33526C96.6815 9.33526 96.0024 9.96587 96.0024 10.8552V15.9162H93.7387V10.9845C93.7387 10.0144 93.1243 9.33526 92.2673 9.33526C91.3133 9.33526 90.6504 9.96587 90.6504 10.8552V15.9H88.2896V7.54048H90.6504V8.63999C91.0546 7.84769 91.8792 7.34645 92.9141 7.34645C94.0621 7.34645 95.0484 7.92854 95.5658 8.86636C96.0024 7.94471 97.0372 7.34645 98.2822 7.34645Z" fill="#FDF8F5"/>
<path d="M107.09 7.34645C109.273 7.34645 110.76 8.72083 110.76 10.9037V15.9H108.48V15.0592C107.882 15.7383 106.928 16.094 106.023 16.094C104.244 16.094 102.87 15.0268 102.87 13.4261C102.87 11.7768 104.406 10.645 106.346 10.645C107.025 10.645 107.769 10.7905 108.48 11.0654V10.9037C108.48 10.0144 107.931 9.23825 106.556 9.23825C105.78 9.23825 105.052 9.49696 104.39 9.83651L103.597 8.26809C104.778 7.66983 105.926 7.34645 107.09 7.34645ZM106.556 14.4609C107.462 14.4609 108.319 14.0405 108.48 13.2644V12.4883C107.947 12.2942 107.332 12.1811 106.686 12.1811C105.829 12.1811 105.15 12.6823 105.15 13.3614C105.15 14.0405 105.748 14.4609 106.556 14.4609Z" fill="#FDF8F5"/>
<path d="M117.585 7.34645C119.396 7.34645 120.689 8.68849 120.689 10.5803V15.9H118.409V11.0815C118.409 10.0467 117.762 9.33526 116.825 9.33526C115.838 9.33526 115.078 10.0467 115.078 10.9522L115.062 10.9037V15.9H112.701V7.54048H115.062V8.59148C115.563 7.83152 116.501 7.34645 117.585 7.34645Z" fill="#FDF8F5"/>
<path d="M126.417 7.34645C128.6 7.34645 130.088 8.72083 130.088 10.9037V15.9H127.808V15.0592C127.209 15.7383 126.255 16.094 125.35 16.094C123.571 16.094 122.197 15.0268 122.197 13.4261C122.197 11.7768 123.733 10.645 125.673 10.645C126.352 10.645 127.096 10.7905 127.808 11.0654V10.9037C127.808 10.0144 127.258 9.23825 125.884 9.23825C125.107 9.23825 124.38 9.49696 123.717 9.83651L122.925 8.26809C124.105 7.66983 125.253 7.34645 126.417 7.34645ZM125.884 14.4609C126.789 14.4609 127.646 14.0405 127.808 13.2644V12.4883C127.274 12.2942 126.66 12.1811 126.013 12.1811C125.156 12.1811 124.477 12.6823 124.477 13.3614C124.477 14.0405 125.075 14.4609 125.884 14.4609Z" fill="#FDF8F5"/>
<path d="M142.835 4.59767H145.195V15.9H142.835V14.7035C142.172 15.5766 141.202 16.094 140.021 16.094C137.79 16.094 136.173 14.2831 136.173 11.7121C136.173 9.1574 137.79 7.34645 140.021 7.34645C141.202 7.34645 142.172 7.86386 142.835 8.737V4.59767ZM140.7 14.1052C141.945 14.1052 142.835 13.1189 142.835 11.7121C142.835 10.3216 141.945 9.33526 140.7 9.33526C139.391 9.33526 138.469 10.3216 138.469 11.7121C138.469 13.1189 139.391 14.1052 140.7 14.1052Z" fill="#FDF8F5"/>
<path d="M151.003 7.34645C153.185 7.34645 154.673 8.72083 154.673 10.9037V15.9H152.393V15.0592C151.795 15.7383 150.841 16.094 149.935 16.094C148.157 16.094 146.782 15.0268 146.782 13.4261C146.782 11.7768 148.319 10.645 150.259 10.645C150.938 10.645 151.682 10.7905 152.393 11.0654V10.9037C152.393 10.0144 151.843 9.23825 150.469 9.23825C149.693 9.23825 148.965 9.49696 148.302 9.83651L147.51 8.26809C148.69 7.66983 149.838 7.34645 151.003 7.34645ZM150.469 14.4609C151.375 14.4609 152.231 14.0405 152.393 13.2644V12.4883C151.86 12.2942 151.245 12.1811 150.598 12.1811C149.741 12.1811 149.062 12.6823 149.062 13.3614C149.062 14.0405 149.661 14.4609 150.469 14.4609Z" fill="#FDF8F5"/>
<path d="M74.0512 32.2296C70.8659 32.2296 68.1494 29.594 68.1494 26.4733C68.1494 23.3526 70.8659 20.7332 74.0512 20.7332C75.7328 20.7332 77.2851 21.4447 78.3684 22.5927L76.6383 24.1449C75.9915 23.4012 75.0699 22.8999 74.0512 22.8999C72.1918 22.8999 70.6072 24.5492 70.6072 26.4733C70.6072 28.4136 72.1918 30.0629 74.0512 30.0629C75.0699 30.0629 75.9915 29.5616 76.6383 28.8179L78.3684 30.3701C77.2851 31.502 75.7328 32.2296 74.0512 32.2296Z" fill="#FDF8F5"/>
<path d="M83.8868 32.2296C81.3967 32.2296 79.3109 30.2246 79.3109 27.8477C79.3109 25.4708 81.3967 23.482 83.8868 23.482C86.3607 23.482 88.4304 25.4708 88.4304 27.8477C88.4304 30.2246 86.3607 32.2296 83.8868 32.2296ZM83.8868 30.2408C85.1318 30.2408 86.1828 29.1412 86.1828 27.8477C86.1828 26.5542 85.1318 25.4708 83.8868 25.4708C82.6256 25.4708 81.5746 26.5542 81.5746 27.8477C81.5746 29.1412 82.6256 30.2408 83.8868 30.2408Z" fill="#FDF8F5"/>
<path d="M99.9718 23.482C101.718 23.482 103.06 24.8241 103.06 26.7159V32.0517H100.796V27.1201C100.796 26.1499 100.182 25.4708 99.3089 25.4708C98.3711 25.4708 97.6919 26.1014 97.6919 26.9907V32.0517H95.4282V27.1201C95.4282 26.1499 94.8138 25.4708 93.9568 25.4708C93.0029 25.4708 92.3399 26.1014 92.3399 26.9907V32.0355H89.9792V23.676H92.3399V24.7755C92.7441 23.9832 93.5688 23.482 94.6036 23.482C95.7516 23.482 96.738 24.0641 97.2554 25.0019C97.6919 24.0803 98.7268 23.482 99.9718 23.482Z" fill="#FDF8F5"/>
<path d="M110.202 23.482C112.434 23.482 114.051 25.293 114.051 27.8477C114.051 30.4186 112.434 32.2296 110.202 32.2296C109.038 32.2296 108.068 31.7283 107.405 30.8552V34.8167H105.044V23.676H107.405V24.8402C108.068 23.9832 109.038 23.482 110.202 23.482ZM109.523 30.2408C110.833 30.2408 111.755 29.2544 111.755 27.8477C111.755 26.4571 110.833 25.4708 109.523 25.4708C108.375 25.4708 107.534 26.3116 107.405 27.5243V28.1711C107.534 29.4 108.375 30.2408 109.523 30.2408Z" fill="#FDF8F5"/>
<path d="M121.265 23.676H123.625V32.0355H121.265V30.9845C120.763 31.7445 119.826 32.2296 118.742 32.2296C116.931 32.2296 115.638 30.8875 115.638 28.9957V23.676H117.918V28.4945C117.918 29.5293 118.564 30.2408 119.502 30.2408C120.488 30.2408 121.248 29.5293 121.248 28.6238L121.265 28.6723V23.676Z" fill="#FDF8F5"/>
<path d="M130.049 29.9659L130.615 31.502C130.129 31.9385 129.37 32.2296 128.69 32.2296C127.219 32.2296 126.184 31.1786 126.184 29.6748V25.584H125.036V23.676H126.184V21.38H128.448V23.676H130.259V25.584H128.448V29.3029C128.448 29.8527 128.804 30.2408 129.24 30.2408C129.564 30.2408 129.887 30.1276 130.049 29.9659Z" fill="#FDF8F5"/>
<path d="M135.828 23.482C138.011 23.482 139.499 24.8564 139.499 27.0392V32.0355H137.219V31.1947C136.62 31.8738 135.666 32.2296 134.761 32.2296C132.982 32.2296 131.608 31.1624 131.608 29.5616C131.608 27.9124 133.144 26.7805 135.084 26.7805C135.763 26.7805 136.507 26.9261 137.219 27.2009V27.0392C137.219 26.1499 136.669 25.3738 135.295 25.3738C134.518 25.3738 133.791 25.6325 133.128 25.9721L132.336 24.4036C133.516 23.8054 134.664 23.482 135.828 23.482ZM135.295 30.5965C136.2 30.5965 137.057 30.1761 137.219 29.4V28.6238C136.685 28.4298 136.071 28.3166 135.424 28.3166C134.567 28.3166 133.888 28.8179 133.888 29.497C133.888 30.1761 134.486 30.5965 135.295 30.5965Z" fill="#FDF8F5"/>
<path d="M148.926 30.7582C148.199 31.5505 147.228 32.084 146.064 32.2134L145.854 32.7308C146.565 32.7308 147.067 33.1836 147.067 33.8303C147.067 34.6873 146.323 35.2209 145.32 35.2209C144.722 35.2209 144.14 35.0107 143.784 34.752L144.205 33.8142C144.496 34.0567 144.851 34.1861 145.191 34.1861C145.563 34.1861 145.87 33.992 145.87 33.701C145.87 33.4423 145.676 33.2644 145.337 33.2644C145.175 33.2644 144.997 33.3129 144.851 33.4099L144.496 33.0704L144.884 32.1811C142.717 31.8415 141.019 29.9982 141.019 27.8477C141.019 25.4708 143.121 23.482 145.595 23.482C146.953 23.482 148.069 24.0318 148.878 24.9049L147.309 26.2469C146.889 25.778 146.226 25.4708 145.579 25.4708C144.35 25.4708 143.315 26.5542 143.315 27.8315C143.315 29.1412 144.35 30.2408 145.595 30.2408C146.242 30.2408 146.921 29.9174 147.358 29.4323L148.926 30.7582Z" fill="#FDF8F5"/>
<path d="M153.128 21.9459C152.772 21.9459 152.562 22.2046 152.449 22.8029L151.268 22.625C151.446 21.2183 152.012 20.4907 153.063 20.4907C153.969 20.4907 154.68 21.3153 155.197 21.3153C155.553 21.3153 155.763 21.0566 155.877 20.4745L157.041 20.6362C156.879 22.0591 156.313 22.7706 155.246 22.7706C154.34 22.7706 153.661 21.9459 153.128 21.9459ZM154.082 23.482C156.265 23.482 157.752 24.8564 157.752 27.0392V32.0355H155.472V31.1947C154.874 31.8738 153.92 32.2296 153.015 32.2296C151.236 32.2296 149.862 31.1624 149.862 29.5616C149.862 27.9124 151.398 26.7805 153.338 26.7805C154.017 26.7805 154.761 26.9261 155.472 27.2009V27.0392C155.472 26.1499 154.923 25.3738 153.548 25.3738C152.772 25.3738 152.044 25.6325 151.381 25.9721L150.589 24.4036C151.77 23.8054 152.918 23.482 154.082 23.482ZM153.548 30.5965C154.454 30.5965 155.311 30.1761 155.472 29.4V28.6238C154.939 28.4298 154.324 28.3166 153.677 28.3166C152.821 28.3166 152.141 28.8179 152.141 29.497C152.141 30.1761 152.74 30.5965 153.548 30.5965Z" fill="#FDF8F5"/>
<path d="M163.849 32.2296C161.359 32.2296 159.273 30.2246 159.273 27.8477C159.273 25.4708 161.359 23.482 163.849 23.482C166.323 23.482 168.392 25.4708 168.392 27.8477C168.392 30.2246 166.323 32.2296 163.849 32.2296ZM163.849 30.2408C165.094 30.2408 166.145 29.1412 166.145 27.8477C166.145 26.5542 165.094 25.4708 163.849 25.4708C162.588 25.4708 161.537 26.5542 161.537 27.8477C161.537 29.1412 162.588 30.2408 163.849 30.2408Z" fill="#FDF8F5"/>
<path d="M72.7931 47.8707C70.403 47.8707 68.71 46.1208 68.71 43.6454V37.9262H69.8197V43.6454C69.8197 45.5233 71.0574 46.8606 72.7931 46.8606C74.5287 46.8606 75.7665 45.5233 75.7665 43.6454V37.9262H76.8761V43.6454C76.8761 46.1208 75.1832 47.8707 72.7931 47.8707Z" fill="#FDF8F5"/>
<path d="M86.2387 38.979H80.3488V42.1942H85.6554V43.247H80.3488V47.7H79.2249V37.9262H86.2387V38.979Z" fill="#FDF8F5"/>
<path d="M87.8943 47.7V37.9262H91.8636C93.8838 37.9262 95.4629 39.2209 95.4629 41.0561C95.4629 42.8913 93.8838 44.186 91.8636 44.186H89.004V47.7H87.8943ZM89.004 43.1332H91.6644C93.2578 43.1332 94.339 42.365 94.339 41.0561C94.339 39.7472 93.2578 38.979 91.6644 38.979H89.004V43.1332Z" fill="#FDF8F5"/>
<path d="M104.064 38.979H98.1739V42.1942H103.48V43.247H98.1739V46.6472H104.064V47.7H97.05V37.9262H104.064V38.979Z" fill="#FDF8F5"/>
<path d="M5.88889 44.1667V33.2722C5.88889 30.833 3.91149 28.8556 1.47222 28.8556H0V24.1444H1.47222C3.91149 24.1444 5.88889 22.167 5.88889 19.7278V8.83333C5.88889 3.95483 9.84372 0 14.7222 0H17.6667V5.88889H14.7222C13.0961 5.88889 11.7778 7.20718 11.7778 8.83333V20.9056C11.7778 23.5137 10.082 25.7262 7.73279 26.5C10.082 27.2738 11.7778 29.4863 11.7778 32.0944V44.1667C11.7778 45.7929 13.0961 47.1111 14.7222 47.1111H17.6667V53H14.7222C9.84372 53 5.88889 49.0453 5.88889 44.1667ZM53 33.2722V44.1667C53 49.0453 49.0453 53 44.1667 53H41.2222V47.1111H44.1667C45.7929 47.1111 47.1111 45.7929 47.1111 44.1667V32.0944C47.1111 29.4863 48.8068 27.2738 51.1562 26.5C48.8068 25.7262 47.1111 23.5137 47.1111 20.9056V8.83333C47.1111 7.20718 45.7929 5.88889 44.1667 5.88889H41.2222V0H44.1667C49.0453 0 53 3.95483 53 8.83333V19.7278C53 22.167 54.9775 24.1444 57.4167 24.1444H58.8889V28.8556H57.4167C54.9775 28.8556 53 30.833 53 33.2722Z" fill="#FDF8F5"/>
</svg>
