<svg width="58" height="53" viewBox="0 0 58 53" fill="none" xmlns="http://www.w3.org/2000/svg">
<rect x="0.102051" y="0.475952" width="56.9723" height="52.3777" rx="9.18908" fill="#460FE1"/>
<path d="M23.9937 16.0973C23.9937 17.3661 22.9651 18.3946 21.6964 18.3946C20.4276 18.3946 19.3991 17.3661 19.3991 16.0973C19.3991 14.8286 20.4276 13.8 21.6964 13.8C22.9651 13.8 23.9937 14.8286 23.9937 16.0973ZM20.5478 29.8809V36.7727H18.2505V22.9891C18.2505 21.086 19.7933 19.5432 21.6964 19.5432C22.6389 19.5432 23.4931 19.9217 24.1152 20.5349L26.8426 23.1105L29.4992 20.454L31.1236 22.0784L26.8883 26.3136L25.1423 24.6646V36.7727H22.845V29.8809H20.5478ZM21.6964 21.8405C21.062 21.8405 20.5478 22.3548 20.5478 22.9891V27.5837H22.845V22.9891C22.845 22.3548 22.3308 21.8405 21.6964 21.8405ZM36.6286 17.246H26.2909V14.9487H37.7773C38.4117 14.9487 38.9259 15.4629 38.9259 16.0973V28.7323C38.9259 29.3667 38.4117 29.8809 37.7773 29.8809H33.8441L37.0873 36.7727H34.5483L31.3052 29.8809H26.2909V27.5837H36.6286V17.246Z" fill="#FCF8F5"/>
</svg>
