<svg width="58" height="53" viewBox="0 0 58 53" fill="none" xmlns="http://www.w3.org/2000/svg">
<rect x="0.102051" y="0.558228" width="56.9723" height="52.3777" rx="9.18908" fill="#460FE1"/>
<path d="M34.2551 22.8015C33.672 18.2881 29.8143 14.8013 25.1422 14.8013C20.0672 14.8013 15.9531 18.9154 15.9531 23.9904C15.9531 26.1641 16.7079 28.1614 17.9696 29.7348C18.8977 30.8922 19.3994 32.1747 19.3993 33.5311L19.399 37.774H29.7367L29.7379 34.3281H32.034C33.3028 34.3281 34.3313 33.2996 34.3313 32.0308V28.6665L36.5818 27.7024C36.976 27.5336 37.0104 27.1339 36.8401 26.8662L34.2551 22.8015ZM18.2504 23.9904C18.2504 20.1842 21.336 17.0986 25.1422 17.0986C28.616 17.0986 31.5361 19.6846 31.9767 23.0958L32.0423 23.6029L33.814 26.3889L32.034 27.1513V32.0308H27.4414L27.4403 35.4768H21.6964L21.6966 33.5313C21.6967 31.6486 21.0182 29.8645 19.7617 28.2977C18.7882 27.0836 18.2504 25.5812 18.2504 23.9904ZM39.1021 33.2971L37.1906 32.0227C38.2867 30.3816 38.9258 28.4093 38.9258 26.2878C38.9258 24.1661 38.2867 22.1938 37.1906 20.5528L39.1021 19.2784C40.442 21.2841 41.2231 23.6947 41.2231 26.2878C41.2231 28.8808 40.442 31.2914 39.1021 33.2971Z" fill="#FCF8F5"/>
</svg>
