<svg width="1109" height="174" viewBox="0 0 1109 174" fill="none" xmlns="http://www.w3.org/2000/svg">
<rect x="1107.91" y="104.735" width="67.7072" height="67.7072" transform="rotate(90 1107.91 104.735)" fill="black" stroke="#FDF8F5" stroke-width="1.58689"/>
<rect x="1094.05" y="118.593" width="39.9896" height="39.9896" transform="rotate(90 1094.05 118.593)" fill="black" stroke="#FDF8F5" stroke-width="1.58689"/>
<rect x="1079.09" y="132.452" width="12.2719" height="12.2719" transform="rotate(90 1079.09 132.452)" fill="black" stroke="#FDF8F5" stroke-width="1.58689"/>
<rect x="553.56" y="104.735" width="67.7072" height="67.7072" transform="rotate(90 553.56 104.735)" fill="black" stroke="#FDF8F5" stroke-width="1.58689"/>
<rect x="539.701" y="118.593" width="39.9896" height="39.9896" transform="rotate(90 539.701 118.593)" fill="black" stroke="#FDF8F5" stroke-width="1.58689"/>
<rect x="524.733" y="132.452" width="12.2719" height="12.2719" transform="rotate(90 524.733 132.452)" fill="black" stroke="#FDF8F5" stroke-width="1.58689"/>
<rect x="1038.62" y="70.0879" width="67.7072" height="67.7072" transform="rotate(90 1038.62 70.0879)" fill="black" stroke="#FDF8F5" stroke-width="1.58689"/>
<rect x="1024.76" y="83.9465" width="39.9896" height="39.9896" transform="rotate(90 1024.76 83.9465)" fill="black" stroke="#FDF8F5" stroke-width="1.58689"/>
<rect x="1009.79" y="97.8054" width="12.2719" height="12.2719" transform="rotate(90 1009.79 97.8054)" fill="black" stroke="#FDF8F5" stroke-width="1.58689"/>
<rect x="484.266" y="70.0876" width="67.7072" height="67.7072" transform="rotate(90 484.266 70.0876)" fill="black" stroke="#FDF8F5" stroke-width="1.58689"/>
<rect x="470.407" y="83.9463" width="39.9896" height="39.9896" transform="rotate(90 470.407 83.9463)" fill="black" stroke="#FDF8F5" stroke-width="1.58689"/>
<rect x="455.44" y="97.8052" width="12.2719" height="12.2719" transform="rotate(90 455.44 97.8052)" fill="black" stroke="#FDF8F5" stroke-width="1.58689"/>
<rect x="969.325" y="104.735" width="67.7072" height="67.7072" transform="rotate(90 969.325 104.735)" fill="black" stroke="#FDF8F5" stroke-width="1.58689"/>
<rect x="955.466" y="118.593" width="39.9896" height="39.9896" transform="rotate(90 955.466 118.593)" fill="black" stroke="#FDF8F5" stroke-width="1.58689"/>
<rect x="940.499" y="132.453" width="12.2719" height="12.2719" transform="rotate(90 940.499 132.453)" fill="black" stroke="#FDF8F5" stroke-width="1.58689"/>
<rect x="414.972" y="104.735" width="67.7072" height="67.7072" transform="rotate(90 414.972 104.735)" fill="black" stroke="#FDF8F5" stroke-width="1.58689"/>
<rect x="401.113" y="118.593" width="39.9896" height="39.9896" transform="rotate(90 401.113 118.593)" fill="black" stroke="#FDF8F5" stroke-width="1.58689"/>
<rect x="386.146" y="132.453" width="12.2719" height="12.2719" transform="rotate(90 386.146 132.453)" fill="black" stroke="#FDF8F5" stroke-width="1.58689"/>
<rect x="900.03" y="70.0874" width="67.7072" height="67.7072" transform="rotate(90 900.03 70.0874)" fill="black" stroke="#FDF8F5" stroke-width="1.58689"/>
<rect x="886.171" y="83.9458" width="39.9896" height="39.9896" transform="rotate(90 886.171 83.9458)" fill="black" stroke="#FDF8F5" stroke-width="1.58689"/>
<rect x="871.204" y="97.8049" width="12.2719" height="12.2719" transform="rotate(90 871.204 97.8049)" fill="black" stroke="#FDF8F5" stroke-width="1.58689"/>
<rect x="345.677" y="70.0874" width="67.7072" height="67.7072" transform="rotate(90 345.677 70.0874)" fill="black" stroke="#FDF8F5" stroke-width="1.58689"/>
<rect x="331.818" y="83.9458" width="39.9896" height="39.9896" transform="rotate(90 331.818 83.9458)" fill="black" stroke="#FDF8F5" stroke-width="1.58689"/>
<rect x="316.851" y="97.8047" width="12.2719" height="12.2719" transform="rotate(90 316.851 97.8047)" fill="black" stroke="#FDF8F5" stroke-width="1.58689"/>
<rect x="830.736" y="104.735" width="67.7072" height="67.7072" transform="rotate(90 830.736 104.735)" fill="black" stroke="#FDF8F5" stroke-width="1.58689"/>
<rect x="816.877" y="118.593" width="39.9896" height="39.9896" transform="rotate(90 816.877 118.593)" fill="black" stroke="#FDF8F5" stroke-width="1.58689"/>
<rect x="801.911" y="132.453" width="12.2719" height="12.2719" transform="rotate(90 801.911 132.453)" fill="black" stroke="#FDF8F5" stroke-width="1.58689"/>
<rect x="276.384" y="104.735" width="67.7072" height="67.7072" transform="rotate(90 276.384 104.735)" fill="black" stroke="#FDF8F5" stroke-width="1.58689"/>
<rect x="262.525" y="118.593" width="39.9896" height="39.9896" transform="rotate(90 262.525 118.593)" fill="black" stroke="#FDF8F5" stroke-width="1.58689"/>
<rect x="247.557" y="132.452" width="12.2719" height="12.2719" transform="rotate(90 247.557 132.452)" fill="black" stroke="#FDF8F5" stroke-width="1.58689"/>
<rect x="761.442" y="70.0879" width="67.7072" height="67.7072" transform="rotate(90 761.442 70.0879)" fill="black" stroke="#FDF8F5" stroke-width="1.58689"/>
<rect x="747.583" y="83.946" width="39.9896" height="39.9896" transform="rotate(90 747.583 83.946)" fill="black" stroke="#FDF8F5" stroke-width="1.58689"/>
<rect x="732.616" y="97.8052" width="12.2719" height="12.2719" transform="rotate(90 732.616 97.8052)" fill="black" stroke="#FDF8F5" stroke-width="1.58689"/>
<rect x="207.09" y="70.0874" width="67.7072" height="67.7072" transform="rotate(90 207.09 70.0874)" fill="black" stroke="#FDF8F5" stroke-width="1.58689"/>
<rect x="193.231" y="83.9458" width="39.9896" height="39.9896" transform="rotate(90 193.231 83.9458)" fill="black" stroke="#FDF8F5" stroke-width="1.58689"/>
<rect x="178.263" y="97.8049" width="12.2719" height="12.2719" transform="rotate(90 178.263 97.8049)" fill="black" stroke="#FDF8F5" stroke-width="1.58689"/>
<rect x="692.148" y="104.735" width="67.7072" height="67.7072" transform="rotate(90 692.148 104.735)" fill="black" stroke="#FDF8F5" stroke-width="1.58689"/>
<rect x="678.289" y="118.593" width="39.9896" height="39.9896" transform="rotate(90 678.289 118.593)" fill="black" stroke="#FDF8F5" stroke-width="1.58689"/>
<rect x="663.322" y="132.452" width="12.2719" height="12.2719" transform="rotate(90 663.322 132.452)" fill="black" stroke="#FDF8F5" stroke-width="1.58689"/>
<rect x="137.795" y="104.735" width="67.7072" height="67.7072" transform="rotate(90 137.795 104.735)" fill="black" stroke="#FDF8F5" stroke-width="1.58689"/>
<rect x="123.936" y="118.593" width="39.9896" height="39.9896" transform="rotate(90 123.936 118.593)" fill="black" stroke="#FDF8F5" stroke-width="1.58689"/>
<rect x="108.969" y="132.452" width="12.2719" height="12.2719" transform="rotate(90 108.969 132.452)" fill="black" stroke="#FDF8F5" stroke-width="1.58689"/>
<rect x="622.854" y="70.0879" width="67.7072" height="67.7072" transform="rotate(90 622.854 70.0879)" fill="black" stroke="#FDF8F5" stroke-width="1.58689"/>
<rect x="608.995" y="83.9463" width="39.9896" height="39.9896" transform="rotate(90 608.995 83.9463)" fill="black" stroke="#FDF8F5" stroke-width="1.58689"/>
<rect x="594.027" y="97.8054" width="12.2719" height="12.2719" transform="rotate(90 594.027 97.8054)" fill="black" stroke="#FDF8F5" stroke-width="1.58689"/>
<rect x="68.501" y="70.0874" width="67.7072" height="67.7072" transform="rotate(90 68.501 70.0874)" fill="black" stroke="#FDF8F5" stroke-width="1.58689"/>
<rect x="54.6426" y="83.9463" width="39.9896" height="39.9896" transform="rotate(90 54.6426 83.9463)" stroke="#FDF8F5" stroke-width="1.58689"/>
<rect x="39.6748" y="97.8052" width="12.2719" height="12.2719" transform="rotate(90 39.6748 97.8052)" stroke="#FDF8F5" stroke-width="1.58689"/>
<rect x="1107.91" y="35.4404" width="67.7072" height="67.7072" transform="rotate(90 1107.91 35.4404)" fill="black" stroke="#FDF8F5" stroke-width="1.58689"/>
<rect x="1094.05" y="49.2993" width="39.9896" height="39.9896" transform="rotate(90 1094.05 49.2993)" fill="black" stroke="#FDF8F5" stroke-width="1.58689"/>
<rect x="1079.09" y="63.1582" width="12.2719" height="12.2719" transform="rotate(90 1079.09 63.1582)" fill="black" stroke="#FDF8F5" stroke-width="1.58689"/>
<rect x="553.56" y="35.4407" width="67.7072" height="67.7072" transform="rotate(90 553.56 35.4407)" fill="black" stroke="#FDF8F5" stroke-width="1.58689"/>
<rect x="539.701" y="49.2995" width="39.9896" height="39.9896" transform="rotate(90 539.701 49.2995)" fill="black" stroke="#FDF8F5" stroke-width="1.58689"/>
<rect x="524.734" y="63.1584" width="12.2719" height="12.2719" transform="rotate(90 524.734 63.1584)" fill="black" stroke="#FDF8F5" stroke-width="1.58689"/>
<rect x="1038.62" y="0.793444" width="67.7072" height="67.7072" transform="rotate(90 1038.62 0.793444)" fill="black" stroke="#FDF8F5" stroke-width="1.58689"/>
<rect x="1024.76" y="14.6521" width="39.9896" height="39.9896" transform="rotate(90 1024.76 14.6521)" fill="black" stroke="#FDF8F5" stroke-width="1.58689"/>
<rect x="1009.79" y="28.5112" width="12.2719" height="12.2719" transform="rotate(90 1009.79 28.5112)" fill="black" stroke="#FDF8F5" stroke-width="1.58689"/>
<rect x="484.265" y="0.793444" width="67.7072" height="67.7072" transform="rotate(90 484.265 0.793444)" fill="black" stroke="#FDF8F5" stroke-width="1.58689"/>
<rect x="470.406" y="14.6518" width="39.9896" height="39.9896" transform="rotate(90 470.406 14.6518)" fill="black" stroke="#FDF8F5" stroke-width="1.58689"/>
<rect x="455.439" y="28.5107" width="12.2719" height="12.2719" transform="rotate(90 455.439 28.5107)" fill="black" stroke="#FDF8F5" stroke-width="1.58689"/>
<rect x="969.325" y="35.4404" width="67.7072" height="67.7072" transform="rotate(90 969.325 35.4404)" fill="black" stroke="#FDF8F5" stroke-width="1.58689"/>
<rect x="955.466" y="49.2993" width="39.9896" height="39.9896" transform="rotate(90 955.466 49.2993)" fill="black" stroke="#FDF8F5" stroke-width="1.58689"/>
<rect x="940.499" y="63.1579" width="12.2719" height="12.2719" transform="rotate(90 940.499 63.1579)" fill="black" stroke="#FDF8F5" stroke-width="1.58689"/>
<rect x="414.972" y="35.4402" width="67.7072" height="67.7072" transform="rotate(90 414.972 35.4402)" fill="black" stroke="#FDF8F5" stroke-width="1.58689"/>
<rect x="401.113" y="49.2988" width="39.9896" height="39.9896" transform="rotate(90 401.113 49.2988)" fill="black" stroke="#FDF8F5" stroke-width="1.58689"/>
<rect x="386.146" y="63.1579" width="12.2719" height="12.2719" transform="rotate(90 386.146 63.1579)" fill="black" stroke="#FDF8F5" stroke-width="1.58689"/>
<rect x="900.031" y="0.793444" width="67.7072" height="67.7072" transform="rotate(90 900.031 0.793444)" fill="black" stroke="#FDF8F5" stroke-width="1.58689"/>
<rect x="886.172" y="14.6518" width="39.9896" height="39.9896" transform="rotate(90 886.172 14.6518)" fill="black" stroke="#FDF8F5" stroke-width="1.58689"/>
<rect x="871.205" y="28.511" width="12.2719" height="12.2719" transform="rotate(90 871.205 28.511)" fill="black" stroke="#FDF8F5" stroke-width="1.58689"/>
<rect x="345.678" y="0.793444" width="67.7072" height="67.7072" transform="rotate(90 345.678 0.793444)" fill="black" stroke="#FDF8F5" stroke-width="1.58689"/>
<rect x="331.819" y="14.6521" width="39.9896" height="39.9896" transform="rotate(90 331.819 14.6521)" fill="black" stroke="#FDF8F5" stroke-width="1.58689"/>
<rect x="316.852" y="28.5112" width="12.2719" height="12.2719" transform="rotate(90 316.852 28.5112)" fill="black" stroke="#FDF8F5" stroke-width="1.58689"/>
<rect x="830.736" y="35.4404" width="67.7072" height="67.7072" transform="rotate(90 830.736 35.4404)" fill="black" stroke="#FDF8F5" stroke-width="1.58689"/>
<rect x="816.877" y="49.2993" width="39.9896" height="39.9896" transform="rotate(90 816.877 49.2993)" fill="black" stroke="#FDF8F5" stroke-width="1.58689"/>
<rect x="801.911" y="63.1579" width="12.2719" height="12.2719" transform="rotate(90 801.911 63.1579)" fill="black" stroke="#FDF8F5" stroke-width="1.58689"/>
<rect x="276.384" y="35.4402" width="67.7072" height="67.7072" transform="rotate(90 276.384 35.4402)" fill="black" stroke="#FDF8F5" stroke-width="1.58689"/>
<rect x="262.525" y="49.2988" width="39.9896" height="39.9896" transform="rotate(90 262.525 49.2988)" fill="black" stroke="#FDF8F5" stroke-width="1.58689"/>
<rect x="247.558" y="63.1577" width="12.2719" height="12.2719" transform="rotate(90 247.558 63.1577)" fill="black" stroke="#FDF8F5" stroke-width="1.58689"/>
<rect x="761.442" y="0.793444" width="67.7072" height="67.7072" transform="rotate(90 761.442 0.793444)" fill="black" stroke="#FDF8F5" stroke-width="1.58689"/>
<rect x="747.583" y="14.6521" width="39.9896" height="39.9896" transform="rotate(90 747.583 14.6521)" fill="black" stroke="#FDF8F5" stroke-width="1.58689"/>
<rect x="732.615" y="28.5112" width="12.2719" height="12.2719" transform="rotate(90 732.615 28.5112)" fill="black" stroke="#FDF8F5" stroke-width="1.58689"/>
<rect x="207.09" y="0.793444" width="67.7072" height="67.7072" transform="rotate(90 207.09 0.793444)" fill="black" stroke="#FDF8F5" stroke-width="1.58689"/>
<rect x="193.23" y="14.6521" width="39.9896" height="39.9896" transform="rotate(90 193.23 14.6521)" fill="black" stroke="#FDF8F5" stroke-width="1.58689"/>
<rect x="178.263" y="28.511" width="12.2719" height="12.2719" transform="rotate(90 178.263 28.511)" fill="black" stroke="#FDF8F5" stroke-width="1.58689"/>
<rect x="692.148" y="35.4404" width="67.7072" height="67.7072" transform="rotate(90 692.148 35.4404)" fill="black" stroke="#FDF8F5" stroke-width="1.58689"/>
<rect x="678.289" y="49.2993" width="39.9896" height="39.9896" transform="rotate(90 678.289 49.2993)" fill="black" stroke="#FDF8F5" stroke-width="1.58689"/>
<rect x="663.322" y="63.1579" width="12.2719" height="12.2719" transform="rotate(90 663.322 63.1579)" fill="black" stroke="#FDF8F5" stroke-width="1.58689"/>
<rect x="137.795" y="35.4404" width="67.7072" height="67.7072" transform="rotate(90 137.795 35.4404)" fill="black" stroke="#FDF8F5" stroke-width="1.58689"/>
<rect x="123.936" y="49.2991" width="39.9896" height="39.9896" transform="rotate(90 123.936 49.2991)" fill="black" stroke="#FDF8F5" stroke-width="1.58689"/>
<rect x="108.969" y="63.1579" width="12.2719" height="12.2719" transform="rotate(90 108.969 63.1579)" fill="black" stroke="#FDF8F5" stroke-width="1.58689"/>
<rect x="622.854" y="0.793444" width="67.7072" height="67.7072" transform="rotate(90 622.854 0.793444)" fill="black" stroke="#FDF8F5" stroke-width="1.58689"/>
<rect x="608.995" y="14.6523" width="39.9896" height="39.9896" transform="rotate(90 608.995 14.6523)" fill="black" stroke="#FDF8F5" stroke-width="1.58689"/>
<rect x="594.027" y="28.511" width="12.2719" height="12.2719" transform="rotate(90 594.027 28.511)" fill="black" stroke="#FDF8F5" stroke-width="1.58689"/>
<rect x="68.501" y="0.793444" width="67.7072" height="67.7072" transform="rotate(90 68.501 0.793444)" fill="black" stroke="#FDF8F5" stroke-width="1.58689"/>
<rect x="54.6426" y="14.6521" width="39.9896" height="39.9896" transform="rotate(90 54.6426 14.6521)" fill="black" stroke="#FDF8F5" stroke-width="1.58689"/>
<rect x="39.6748" y="28.511" width="12.2719" height="12.2719" transform="rotate(90 39.6748 28.511)" fill="black" stroke="#FDF8F5" stroke-width="1.58689"/>
</svg>
