<svg height="120" viewBox="0 0 1058 146" fill="none" xmlns="http://www.w3.org/2000/svg">
<mask id="mask0_242_1445" style="mask-type:alpha" maskUnits="userSpaceOnUse" x="0" y="0" width="1058" height="146">
<rect width="1058" height="146" fill="#D9D9D9"/>
</mask>
<g mask="url(#mask0_242_1445)">
<rect x="0.409467" y="-0.409467" width="45.1811" height="45.176" rx="22.588" transform="matrix(1 2.22734e-09 2.22734e-09 -1 995 106.176)" stroke="#460FE1" stroke-width="0.818934"/>
<rect x="0.409467" y="-0.409467" width="93.0406" height="45.176" rx="22.588" transform="matrix(1 2.22734e-09 2.22734e-09 -1 946.558 45.2953)" stroke="#460FE1" stroke-width="0.818934"/>
<rect x="0.409467" y="-0.409467" width="93.0406" height="45.176" rx="22.588" transform="matrix(1 2.22734e-09 2.22734e-09 -1 666.559 94.2953)" stroke="#460FE1" stroke-width="0.818934"/>
<rect x="-0.625772" y="0.625772" width="142.19" height="69.0406" rx="34.5203" transform="matrix(-1 -2.22734e-09 -2.22734e-09 1 923.608 -9.88074)" stroke="#460FE1" stroke-width="1.25154"/>
<rect x="-0.409467" y="0.409467" width="93.0406" height="45.176" rx="22.588" transform="matrix(-1 -2.22734e-09 -2.22734e-09 1 794.04 -43.8807)" stroke="#460FE1" stroke-width="0.818934"/>
<rect x="-0.409467" y="0.409467" width="45.1811" height="45.176" rx="22.588" transform="matrix(-1 -2.22734e-09 -2.22734e-09 1 810.181 89)" stroke="#460FE1" stroke-width="0.818934"/>
<rect x="-0.409467" y="0.409467" width="93.0406" height="45.176" rx="22.588" transform="matrix(-1 -2.22734e-09 -2.22734e-09 1 700.04 -8.88074)" stroke="#460FE1" stroke-width="0.818934"/>
<rect x="-0.409467" y="0.409467" width="93.0406" height="45.176" rx="22.588" transform="matrix(-1 -2.22734e-09 -2.22734e-09 1 929.04 72.9999)" stroke="#460FE1" stroke-width="0.818934"/>
<rect x="0.409467" y="-0.409467" width="45.1811" height="45.176" rx="22.588" transform="matrix(1 2.22734e-09 2.22734e-09 -1 365 113.176)" stroke="#460FE1" stroke-width="0.818934"/>
<rect x="-0.625772" y="0.625772" width="142.19" height="69.0406" rx="34.5203" transform="matrix(-1 -2.22734e-09 -2.22734e-09 1 512.608 -43.8807)" stroke="#460FE1" stroke-width="1.25154"/>
<rect x="-0.409467" y="0.409467" width="93.0406" height="45.176" rx="22.588" transform="matrix(-1 -2.22734e-09 -2.22734e-09 1 513.04 38.1193)" stroke="#460FE1" stroke-width="0.818934"/>
<rect x="-0.409467" y="0.409467" width="93.0406" height="45.176" rx="22.588" transform="matrix(-1 -2.22734e-09 -2.22734e-09 1 289.04 -42.8807)" stroke="#460FE1" stroke-width="0.818934"/>
<rect x="-0.409467" y="0.409467" width="93.0406" height="45.176" rx="22.588" transform="matrix(-1 -2.22734e-09 -2.22734e-09 1 627.04 73.1193)" stroke="#460FE1" stroke-width="0.818934"/>
<rect x="0.409467" y="-0.409467" width="93.0406" height="45.176" rx="22.588" transform="matrix(1 2.22734e-09 2.22734e-09 -1 66 88.1759)" stroke="#460FE1" stroke-width="0.818934"/>
<rect x="-0.625772" y="0.625772" width="142.19" height="69.0406" rx="34.5203" transform="matrix(-1 -2.22734e-09 -2.22734e-09 1 336.191 26.9999)" stroke="#460FE1" stroke-width="1.25154"/>
<rect x="-0.409467" y="0.409467" width="93.0406" height="45.176" rx="22.588" transform="matrix(-1 -2.22734e-09 -2.22734e-09 1 105.041 -12.8807)" stroke="#460FE1" stroke-width="0.818934"/>
<rect x="-0.409467" y="0.409467" width="45.1711" height="45.176" rx="22.5855" transform="matrix(-1 -2.22734e-09 -2.22734e-09 1 65.1711 77.9999)" stroke="#460FE1" stroke-width="0.818934"/>
</g>
</svg>
