<svg width="929" height="929" viewBox="0 0 929 929" fill="none" xmlns="http://www.w3.org/2000/svg">
    <mask id="mask0_532_54" style="mask-type:alpha" maskUnits="userSpaceOnUse" x="0" y="0"
        width="929" height="929">
        <circle cx="464.538" cy="464.916" r="464.065" transform="rotate(-90 464.538 464.916)"
            fill="#D9D9D9" />
    </mask>
    <g mask="url(#mask0_532_54)">
        <rect x="-807.34" y="765.637" width="2268.29" height="1108.5"
            transform="rotate(-35.5 -807.34 765.637)" fill="url(#paint0_linear_532_54)" />
        <path
            d="M232.2 639.5V531.83C232.2 507.724 212.657 488.18 188.55 488.18H174V441.62H188.55C212.657 441.62 232.2 422.076 232.2 397.97V290.3C232.2 242.086 271.286 203 319.5 203H348.6V261.2H319.5C303.429 261.2 290.4 274.229 290.4 290.3V409.61C290.4 435.387 273.641 457.253 250.423 464.9C273.641 472.547 290.4 494.413 290.4 520.19V639.5C290.4 655.572 303.429 668.6 319.5 668.6H348.6V726.8H319.5C271.286 726.8 232.2 687.716 232.2 639.5ZM697.8 531.83V639.5C697.8 687.716 658.716 726.8 610.5 726.8H581.4V668.6H610.5C626.572 668.6 639.6 655.572 639.6 639.5V520.19C639.6 494.413 656.359 472.547 679.578 464.9C656.359 457.253 639.6 435.387 639.6 409.61V290.3C639.6 274.229 626.572 261.2 610.5 261.2H581.4V203H610.5C658.716 203 697.8 242.086 697.8 290.3V397.97C697.8 422.076 717.344 441.62 741.45 441.62H756V488.18H741.45C717.344 488.18 697.8 507.724 697.8 531.83Z"
            fill="#FDF8F5" />
    </g>
    <defs>
        <linearGradient id="paint0_linear_532_54" x1="326.806" y1="765.637" x2="326.806"
            y2="1874.14" gradientUnits="userSpaceOnUse">
            <stop stop-color="#460FE1" />
            <stop offset="1" stop-color="#F102AE" />
        </linearGradient>
    </defs>
</svg>